# xmcd
#
# Track frame offsets: 
#        150
#        16022
#        34312
#        55742
#        81130
#        100397
#        121162
#        141642
#        161137
#        177625
#        203372
#        219052
#        235045
#
# Disc length: 3509 seconds
#
# Revision: 0
# Processed by: cddbd v1.5.2PL0 Copyright (c) Steve Scherf et al.
# Submitted via: ExactAudioCopy v0.90b4
#
DISCID=a90db30d
DTITLE=Johnny Diesel and The Injectors - 
DYEAR=1989
DGENRE=Blues
TTITLE0=Lookin' For Love
TTITLE1=Parisienne Hotel
TTITLE2=Cry In Shame
TTITLE3=Since I Fell For You
TTITLE4=Don't Need Love
TTITLE5=Comin' Home
TTITLE6=Soul Revival
TTITLE7=Fire Without A Flame
TTITLE8=Dry Tears
TTITLE9=Burn
TTITLE10=Get Ya Love
TTITLE11=Never Last
TTITLE12=Thang II
EXTD=
EXTT0=
EXTT1=
EXTT2=
EXTT3=
EXTT4=
EXTT5=
EXTT6=
EXTT7=
EXTT8=
EXTT9=
EXTT10=
EXTT11=
EXTT12=
PLAYORDER=
